<svg xmlns="http://www.w3.org/2000/svg" viewBox="0 -0.5 56 40" shape-rendering="crispEdges">
<metadata>Made with Pixels to Svg https://codepen.io/shshaw/pen/XbxvNj</metadata>
<path stroke="#000000" d="M5 0h46M4 1h1M51 1h1M3 2h1M52 2h1M3 3h1M52 3h1M3 4h1M52 4h1M3 5h1M52 5h1M2 6h2M52 6h2M1 7h1M3 7h1M52 7h1M54 7h1M0 8h1M3 8h1M52 8h1M55 8h1M0 9h1M3 9h1M52 9h1M55 9h1M0 10h1M3 10h1M52 10h1M55 10h1M0 11h1M3 11h1M52 11h1M55 11h1M0 12h1M3 12h1M52 12h1M55 12h1M0 13h1M3 13h1M52 13h1M55 13h1M0 14h1M3 14h1M52 14h1M55 14h1M0 15h1M3 15h1M52 15h1M55 15h1M0 16h1M3 16h1M52 16h1M55 16h1M0 17h1M3 17h1M52 17h1M55 17h1M0 18h1M3 18h1M52 18h1M55 18h1M0 19h1M3 19h1M52 19h1M55 19h1M0 20h1M3 20h1M52 20h1M55 20h1M0 21h1M3 21h1M52 21h1M55 21h1M0 22h1M3 22h1M52 22h1M55 22h1M0 23h1M3 23h1M52 23h1M55 23h1M0 24h1M3 24h1M52 24h1M55 24h1M0 25h1M3 25h1M52 25h1M55 25h1M0 26h1M3 26h1M52 26h1M55 26h1M0 27h1M3 27h1M52 27h1M55 27h1M0 28h1M3 28h1M52 28h1M55 28h1M0 29h1M3 29h1M52 29h1M55 29h1M0 30h1M4 30h1M51 30h1M55 30h1M0 31h1M5 31h46M55 31h1M0 32h1M55 32h1M0 33h2M54 33h2M0 34h1M2 34h1M53 34h1M55 34h1M0 35h1M3 35h50M55 35h1M0 36h1M55 36h1M1 37h1M54 37h1M2 38h1M53 38h1M3 39h50" />
<path stroke="#d68fff" d="M5 1h5M4 2h2M4 3h1M4 4h1M4 5h1M4 6h1M4 7h1M4 24h1M51 24h1M5 25h46" />
<path stroke="#bd4aff" d="M10 1h41M7 2h45M6 3h46M6 4h5M14 4h3M19 4h2M22 4h3M26 4h1M28 4h4M34 4h3M39 4h2M44 4h8M5 5h6M12 5h2M15 5h1M17 5h2M20 5h1M22 5h3M26 5h1M28 5h3M32 5h2M35 5h1M37 5h2M40 5h1M42 5h2M45 5h7M5 6h6M12 6h2M15 6h1M17 6h2M20 6h1M22 6h3M26 6h1M28 6h3M32 6h2M35 6h1M37 6h2M40 6h1M42 6h2M45 6h7M6 7h5M12 7h2M15 7h1M17 7h2M20 7h1M22 7h3M26 7h1M28 7h3M32 7h2M35 7h1M37 7h2M40 7h1M42 7h2M45 7h7M5 8h6M12 8h2M15 8h1M17 8h2M20 8h1M22 8h1M24 8h1M26 8h1M28 8h3M32 8h2M35 8h1M40 8h1M42 8h2M45 8h7M4 9h7M12 9h2M15 9h1M17 9h2M20 9h1M22 9h1M24 9h1M26 9h1M28 9h3M32 9h2M35 9h1M37 9h2M40 9h1M42 9h2M45 9h7M4 10h7M12 10h2M15 10h1M17 10h2M20 10h1M22 10h1M24 10h1M26 10h1M28 10h3M32 10h2M35 10h1M37 10h2M40 10h1M42 10h2M45 10h7M4 11h7M14 11h3M19 11h3M23 11h1M25 11h2M30 11h2M34 11h2M37 11h2M40 11h1M44 11h8M4 12h48M4 13h48M4 14h8M15 14h2M21 14h2M26 14h2M29 14h2M32 14h2M35 14h1M37 14h2M43 14h9M4 15h8M13 15h2M16 15h1M18 15h4M23 15h3M27 15h1M29 15h2M32 15h1M34 15h1M36 15h1M38 15h1M40 15h12M4 16h8M13 16h2M16 16h1M18 16h4M23 16h5M29 16h2M32 16h1M34 16h1M36 16h1M38 16h1M40 16h12M4 17h8M13 17h2M16 17h1M20 17h2M23 17h5M29 17h2M32 17h1M34 17h1M36 17h1M38 17h1M42 17h10M4 18h8M15 18h2M18 18h5M26 18h2M29 18h2M32 18h1M34 18h1M36 18h1M38 18h1M40 18h12M5 19h7M13 19h2M16 19h1M18 19h8M27 19h1M29 19h2M32 19h1M34 19h3M38 19h1M40 19h12M5 20h7M13 20h2M16 20h1M18 20h4M23 20h3M27 20h1M29 20h2M32 20h1M34 20h3M38 20h1M40 20h12M5 21h7M13 21h2M16 21h1M21 21h2M26 21h3M31 21h2M34 21h3M38 21h1M43 21h9M5 22h47M6 23h46M7 24h44" />
<path stroke="#c663ff" d="M6 2h1M5 3h1M5 4h1M5 7h1M4 8h1M4 19h1M4 20h1M4 21h1M4 22h1M4 23h2M5 24h2" />
<path stroke="#ffffff" d="M11 4h3M17 4h2M21 4h1M25 4h1M27 4h1M32 4h2M37 4h2M41 4h3M11 5h1M14 5h1M16 5h1M19 5h1M21 5h1M25 5h1M27 5h1M31 5h1M34 5h1M36 5h1M39 5h1M41 5h1M44 5h1M11 6h1M14 6h1M16 6h1M19 6h1M21 6h1M25 6h1M27 6h1M31 6h1M34 6h1M36 6h1M39 6h1M41 6h1M44 6h1M11 7h1M14 7h1M16 7h1M19 7h1M21 7h1M25 7h1M27 7h1M31 7h1M34 7h1M36 7h1M39 7h1M41 7h1M44 7h1M11 8h1M14 8h1M16 8h1M19 8h1M21 8h1M23 8h1M25 8h1M27 8h1M31 8h1M34 8h1M36 8h4M41 8h1M44 8h1M11 9h1M14 9h1M16 9h1M19 9h1M21 9h1M23 9h1M25 9h1M27 9h1M31 9h1M34 9h1M36 9h1M39 9h1M41 9h1M44 9h1M11 10h1M14 10h1M16 10h1M19 10h1M21 10h1M23 10h1M25 10h1M27 10h1M31 10h1M34 10h1M36 10h1M39 10h1M41 10h1M44 10h1M11 11h3M17 11h2M22 11h1M24 11h1M27 11h3M32 11h2M36 11h1M39 11h1M41 11h3M12 14h3M17 14h4M23 14h3M28 14h1M31 14h1M34 14h1M36 14h1M39 14h4M12 15h1M15 15h1M17 15h1M22 15h1M26 15h1M28 15h1M31 15h1M33 15h1M35 15h1M37 15h1M39 15h1M12 16h1M15 16h1M17 16h1M22 16h1M28 16h1M31 16h1M33 16h1M35 16h1M37 16h1M39 16h1M12 17h1M15 17h1M17 17h3M22 17h1M28 17h1M31 17h1M33 17h1M35 17h1M37 17h1M39 17h3M12 18h3M17 18h1M23 18h3M28 18h1M31 18h1M33 18h1M35 18h1M37 18h1M39 18h1M12 19h1M15 19h1M17 19h1M26 19h1M28 19h1M31 19h1M33 19h1M37 19h1M39 19h1M12 20h1M15 20h1M17 20h1M22 20h1M26 20h1M28 20h1M31 20h1M33 20h1M37 20h1M39 20h1M12 21h1M15 21h1M17 21h4M23 21h3M29 21h2M33 21h1M37 21h1M39 21h4" />
<path stroke="#e8e8e8" d="M2 7h1M1 8h2M1 9h2M1 10h1M2 11h1M1 12h2M1 13h2M1 14h2M1 15h2M1 16h2M1 17h2M1 18h2M1 19h2M1 20h2M1 21h2M1 22h2M1 23h2M1 24h2M1 25h2M1 26h2M1 27h2M1 28h2M1 29h2M1 30h3M1 31h3M1 32h3M6 32h1M2 33h1M5 33h1" />
<path stroke="#949494" d="M53 7h1M53 8h2M53 9h2M53 10h2M53 11h2M53 12h2M53 13h2M53 14h2M53 15h2M53 16h2M53 17h2M53 18h2M53 19h2M53 20h2M53 21h2M53 22h2M53 23h2M53 24h2M53 25h2M53 26h2M53 27h2M53 28h2M53 29h2M52 30h3M4 31h1M51 31h4M4 32h2M7 32h48M3 33h2M6 33h48M1 34h1M3 34h50M54 34h1M1 35h2M53 35h2M1 36h54M2 37h52M3 38h50" />
<path stroke="#e6e6e6" d="M2 10h1M1 11h1" />
<path stroke="#5b008f" d="M4 25h1M5 26h4" />
<path stroke="#7300b5" d="M51 25h1M4 26h1M9 26h43M4 27h48M4 28h48M4 29h48M5 30h46" />
</svg>