<svg xmlns="http://www.w3.org/2000/svg" viewBox="0 -0.5 16 16" shape-rendering="crispEdges">
<metadata>Made with Pixels to Svg https://codepen.io/shshaw/pen/XbxvNj</metadata>
<path stroke="#4fb7f7" d="M7 1h2M6 2h1M9 2h1M7 3h2M10 3h1M1 4h2M8 4h1M11 4h1M0 5h1M3 5h1M7 5h1M12 5h1M1 6h1M4 6h1M6 6h1M13 6h1M2 7h1M5 7h1M14 7h1M2 8h1M5 8h1M14 8h1M1 9h1M4 9h1M6 9h1M13 9h1M0 10h1M3 10h1M7 10h1M12 10h1M1 11h2M8 11h1M11 11h1M7 12h1M10 12h1M6 13h1M9 13h1M7 14h2" />
<path stroke="#cdecfa" d="M7 2h1M9 4h1M1 5h1M2 6h1M7 6h1M6 7h1M3 8h1M9 10h1M8 12h1M7 13h1" />
<path stroke="#ffffff" d="M8 2h1M9 3h1M10 4h1M2 5h1M8 5h1M3 6h1M4 7h1M7 7h1" />
<path stroke="#4ac9ff" d="M9 5h1M8 6h1M3 7h1M8 7h1M6 8h1M10 8h1M13 8h1M2 9h1M7 9h1M12 9h1M1 10h1M8 10h1M10 10h1M10 11h1M9 12h1M8 13h1" />
<path stroke="#0099d6" d="M10 5h2M9 6h2M12 6h1M9 7h5M4 8h1M7 8h3M11 8h2M3 9h1M8 9h4M2 10h1M11 10h1M9 11h1" />
<path stroke="#fffead" d="M11 6h1" />
</svg>