<svg xmlns="http://www.w3.org/2000/svg" viewBox="0 -0.5 16 16" shape-rendering="crispEdges">
<metadata>Made with Pixels to Svg https://codepen.io/shshaw/pen/XbxvNj</metadata>
<path stroke="#000000" d="M3 2h4M10 2h4M2 3h1M7 3h1M9 3h1M14 3h1M1 4h1M8 4h1M15 4h1M1 5h1M15 5h1M1 6h1M15 6h1M1 7h1M15 7h1M2 8h1M14 8h1M3 9h1M13 9h1M4 10h1M12 10h1M5 11h1M11 11h1M6 12h1M10 12h1M7 13h1M9 13h1M8 14h1" />
<path stroke="#ff0000" d="M3 3h4M10 3h4M2 4h2M6 4h2M9 4h6M2 5h1M5 5h10M2 6h1M4 6h11M2 7h13M3 8h11M4 9h9M5 10h7M6 11h5M7 12h3M8 13h1" />
<path stroke="#ffffff" d="M4 4h2M3 5h2M3 6h1" />
</svg>