<svg width="512" height="512" viewBox="0 0 512 512" fill="none" xmlns="http://www.w3.org/2000/svg">
<rect width="512" height="512" fill="black"/>
<path d="M192.124 351.775C192.124 346.128 195.515 341.55 199.699 341.55H311.806C315.99 341.55 319.381 346.128 319.381 351.775C319.381 357.422 315.99 362 311.806 362H199.699C195.515 362 192.124 357.422 192.124 351.775Z" fill="#FAFF00"/>
<path d="M248.178 169.768C248.178 164.121 251.569 159.543 255.753 159.543C259.936 159.543 263.327 164.121 263.327 169.768V341.55C263.327 347.197 259.936 351.775 255.753 351.775C251.569 351.775 248.178 347.197 248.178 341.55V169.768Z" fill="#FAFF00"/>
<path d="M129 160.225C129 154.578 132.391 150 136.575 150H374.425C378.609 150 382 154.578 382 160.225C382 165.872 378.609 170.45 374.425 170.45H136.575C132.391 170.45 129 165.872 129 160.225Z" fill="#FAFF00"/>
<path d="M170.914 164.315C170.914 162.433 172.045 160.907 173.439 160.907H178.489C179.884 160.907 181.014 162.433 181.014 164.315V236.572C181.014 238.455 179.884 239.981 178.489 239.981H173.439C172.045 239.981 170.914 238.455 170.914 236.572V164.315Z" fill="#FAFF00"/>
<path d="M173.592 210.317C174.587 208.242 176.836 208.242 177.831 210.317L213.642 284.994C214.73 287.261 213.524 290.254 211.523 290.254H139.9C137.899 290.254 136.693 287.261 137.781 284.994L173.592 210.317Z" fill="#FAFF00"/>
<path d="M170.914 164.315C170.914 162.433 172.045 160.907 173.439 160.907H178.489C179.884 160.907 181.014 162.433 181.014 164.315V236.572C181.014 238.455 179.884 239.981 178.489 239.981H173.439C172.045 239.981 170.914 238.455 170.914 236.572V164.315Z" fill="#FAFF00"/>
<path d="M173.592 210.317C174.587 208.242 176.836 208.242 177.831 210.317L213.642 284.994C214.73 287.261 213.524 290.254 211.523 290.254H139.9C137.899 290.254 136.693 287.261 137.781 284.994L173.592 210.317Z" fill="#FAFF00"/>
<path d="M330.996 164.315C330.996 162.433 332.126 160.907 333.521 160.907H338.571C339.965 160.907 341.096 162.433 341.096 164.315V236.572C341.096 238.455 339.965 239.981 338.571 239.981H333.521C332.126 239.981 330.996 238.455 330.996 236.572V164.315Z" fill="#FAFF00"/>
<path d="M333.674 210.317C334.669 208.242 336.918 208.242 337.913 210.317L373.724 284.994C374.812 287.261 373.606 290.254 371.605 290.254H299.982C297.981 290.254 296.775 287.261 297.863 284.994L333.674 210.317Z" fill="#FAFF00"/>
<path d="M330.996 164.315C330.996 162.433 332.126 160.907 333.521 160.907H338.571C339.965 160.907 341.096 162.433 341.096 164.315V236.572C341.096 238.455 339.965 239.981 338.571 239.981H333.521C332.126 239.981 330.996 238.455 330.996 236.572V164.315Z" fill="#FAFF00"/>
<path d="M333.674 210.317C334.669 208.242 336.918 208.242 337.913 210.317L373.724 284.994C374.812 287.261 373.606 290.254 371.605 290.254H299.982C297.981 290.254 296.775 287.261 297.863 284.994L333.674 210.317Z" fill="#FAFF00"/>
</svg>
