<svg xmlns="http://www.w3.org/2000/svg" viewBox="0 -0.5 56 40" shape-rendering="crispEdges">
<metadata>Made with Pixels to Svg https://codepen.io/shshaw/pen/XbxvNj</metadata>
<path stroke="#000000" d="M5 4h46M4 5h1M51 5h1M2 6h2M52 6h2M1 7h1M3 7h1M52 7h1M54 7h1M0 8h1M3 8h1M52 8h1M55 8h1M0 9h1M3 9h1M52 9h1M55 9h1M0 10h1M3 10h1M52 10h1M55 10h1M0 11h1M3 11h1M52 11h1M55 11h1M0 12h1M3 12h1M52 12h1M55 12h1M0 13h1M3 13h1M52 13h1M55 13h1M0 14h1M3 14h1M52 14h1M55 14h1M0 15h1M3 15h1M52 15h1M55 15h1M0 16h1M3 16h1M52 16h1M55 16h1M0 17h1M3 17h1M52 17h1M55 17h1M0 18h1M3 18h1M52 18h1M55 18h1M0 19h1M3 19h1M52 19h1M55 19h1M0 20h1M3 20h1M52 20h1M55 20h1M0 21h1M3 21h1M52 21h1M55 21h1M0 22h1M3 22h1M52 22h1M55 22h1M0 23h1M3 23h1M52 23h1M55 23h1M0 24h1M3 24h1M52 24h1M55 24h1M0 25h1M3 25h1M52 25h1M55 25h1M0 26h1M3 26h1M52 26h1M55 26h1M0 27h1M3 27h1M52 27h1M55 27h1M0 28h1M3 28h1M52 28h1M55 28h1M0 29h1M3 29h1M52 29h1M55 29h1M0 30h1M4 30h1M51 30h1M55 30h1M0 31h1M5 31h46M55 31h1M0 32h1M55 32h1M0 33h2M54 33h2M0 34h1M2 34h1M53 34h1M55 34h1M0 35h1M3 35h50M55 35h1M0 36h1M55 36h1M1 37h1M54 37h1M2 38h1M53 38h1M3 39h50" />
<path stroke="#d68fff" d="M5 5h5M4 6h2M4 7h1M4 8h1M4 9h1M4 10h1M4 11h1M4 28h1M51 28h1M5 29h46" />
<path stroke="#bd4aff" d="M10 5h41M7 6h45M6 7h46M6 8h5M14 8h3M19 8h2M22 8h3M26 8h1M28 8h4M34 8h3M39 8h2M44 8h8M5 9h6M12 9h2M15 9h1M17 9h2M20 9h1M22 9h3M26 9h1M28 9h3M32 9h2M35 9h1M37 9h2M40 9h1M42 9h2M45 9h7M5 10h6M12 10h2M15 10h1M17 10h2M20 10h1M22 10h3M26 10h1M28 10h3M32 10h2M35 10h1M37 10h2M40 10h1M42 10h2M45 10h7M6 11h5M12 11h2M15 11h1M17 11h2M20 11h1M22 11h3M26 11h1M28 11h3M32 11h2M35 11h1M37 11h2M40 11h1M42 11h2M45 11h7M5 12h6M12 12h2M15 12h1M17 12h2M20 12h1M22 12h1M24 12h1M26 12h1M28 12h3M32 12h2M35 12h1M40 12h1M42 12h2M45 12h7M4 13h7M12 13h2M15 13h1M17 13h2M20 13h1M22 13h1M24 13h1M26 13h1M28 13h3M32 13h2M35 13h1M37 13h2M40 13h1M42 13h2M45 13h7M4 14h7M12 14h2M15 14h1M17 14h2M20 14h1M22 14h1M24 14h1M26 14h1M28 14h3M32 14h2M35 14h1M37 14h2M40 14h1M42 14h2M45 14h7M4 15h7M14 15h3M19 15h3M23 15h1M25 15h2M30 15h2M34 15h2M37 15h2M40 15h1M44 15h8M4 16h48M4 17h48M4 18h8M15 18h2M21 18h2M26 18h2M29 18h2M32 18h2M35 18h1M37 18h2M43 18h9M4 19h8M13 19h2M16 19h1M18 19h4M23 19h3M27 19h1M29 19h2M32 19h1M34 19h1M36 19h1M38 19h1M40 19h12M4 20h8M13 20h2M16 20h1M18 20h4M23 20h5M29 20h2M32 20h1M34 20h1M36 20h1M38 20h1M40 20h12M4 21h8M13 21h2M16 21h1M20 21h2M23 21h5M29 21h2M32 21h1M34 21h1M36 21h1M38 21h1M42 21h10M4 22h8M15 22h2M18 22h5M26 22h2M29 22h2M32 22h1M34 22h1M36 22h1M38 22h1M40 22h12M5 23h7M13 23h2M16 23h1M18 23h8M27 23h1M29 23h2M32 23h1M34 23h3M38 23h1M40 23h12M5 24h7M13 24h2M16 24h1M18 24h4M23 24h3M27 24h1M29 24h2M32 24h1M34 24h3M38 24h1M40 24h12M5 25h7M13 25h2M16 25h1M21 25h2M26 25h3M31 25h2M34 25h3M38 25h1M43 25h9M5 26h47M6 27h46M7 28h44" />
<path stroke="#c663ff" d="M6 6h1M5 7h1M5 8h1M5 11h1M4 12h1M4 23h1M4 24h1M4 25h1M4 26h1M4 27h2M5 28h2" />
<path stroke="#e8e8e8" d="M2 7h1M1 8h2M1 9h2M1 10h1M2 11h1M1 12h2M1 13h2M1 14h2M1 15h2M1 16h2M1 17h2M1 18h2M1 19h2M1 20h2M1 21h2M1 22h2M1 23h2M1 24h2M1 25h2M1 26h2M1 27h2M1 28h2M1 29h2M1 30h3M1 31h3M1 32h3M6 32h1M2 33h1M5 33h1" />
<path stroke="#949494" d="M53 7h1M53 8h2M53 9h2M53 10h2M53 11h2M53 12h2M53 13h2M53 14h2M53 15h2M53 16h2M53 17h2M53 18h2M53 19h2M53 20h2M53 21h2M53 22h2M53 23h2M53 24h2M53 25h2M53 26h2M53 27h2M53 28h2M53 29h2M52 30h3M4 31h1M51 31h4M4 32h2M7 32h48M3 33h2M6 33h48M1 34h1M3 34h50M54 34h1M1 35h2M53 35h2M1 36h54M2 37h52M3 38h50" />
<path stroke="#ffffff" d="M11 8h3M17 8h2M21 8h1M25 8h1M27 8h1M32 8h2M37 8h2M41 8h3M11 9h1M14 9h1M16 9h1M19 9h1M21 9h1M25 9h1M27 9h1M31 9h1M34 9h1M36 9h1M39 9h1M41 9h1M44 9h1M11 10h1M14 10h1M16 10h1M19 10h1M21 10h1M25 10h1M27 10h1M31 10h1M34 10h1M36 10h1M39 10h1M41 10h1M44 10h1M11 11h1M14 11h1M16 11h1M19 11h1M21 11h1M25 11h1M27 11h1M31 11h1M34 11h1M36 11h1M39 11h1M41 11h1M44 11h1M11 12h1M14 12h1M16 12h1M19 12h1M21 12h1M23 12h1M25 12h1M27 12h1M31 12h1M34 12h1M36 12h4M41 12h1M44 12h1M11 13h1M14 13h1M16 13h1M19 13h1M21 13h1M23 13h1M25 13h1M27 13h1M31 13h1M34 13h1M36 13h1M39 13h1M41 13h1M44 13h1M11 14h1M14 14h1M16 14h1M19 14h1M21 14h1M23 14h1M25 14h1M27 14h1M31 14h1M34 14h1M36 14h1M39 14h1M41 14h1M44 14h1M11 15h3M17 15h2M22 15h1M24 15h1M27 15h3M32 15h2M36 15h1M39 15h1M41 15h3M12 18h3M17 18h4M23 18h3M28 18h1M31 18h1M34 18h1M36 18h1M39 18h4M12 19h1M15 19h1M17 19h1M22 19h1M26 19h1M28 19h1M31 19h1M33 19h1M35 19h1M37 19h1M39 19h1M12 20h1M15 20h1M17 20h1M22 20h1M28 20h1M31 20h1M33 20h1M35 20h1M37 20h1M39 20h1M12 21h1M15 21h1M17 21h3M22 21h1M28 21h1M31 21h1M33 21h1M35 21h1M37 21h1M39 21h3M12 22h3M17 22h1M23 22h3M28 22h1M31 22h1M33 22h1M35 22h1M37 22h1M39 22h1M12 23h1M15 23h1M17 23h1M26 23h1M28 23h1M31 23h1M33 23h1M37 23h1M39 23h1M12 24h1M15 24h1M17 24h1M22 24h1M26 24h1M28 24h1M31 24h1M33 24h1M37 24h1M39 24h1M12 25h1M15 25h1M17 25h4M23 25h3M29 25h2M33 25h1M37 25h1M39 25h4" />
<path stroke="#e6e6e6" d="M2 10h1M1 11h1" />
<path stroke="#5b008f" d="M4 29h1" />
<path stroke="#7300b5" d="M51 29h1M5 30h46" />
</svg>