<svg xmlns="http://www.w3.org/2000/svg" viewBox="0 -0.5 13 13" shape-rendering="crispEdges">
<metadata>Made with Pixels to Svg https://codepen.io/shshaw/pen/XbxvNj</metadata>
<path stroke="#000000" d="M5 1h3M4 2h1M8 2h1M3 3h1M6 3h1M9 3h1M3 4h1M5 4h1M7 4h1M9 4h1M3 5h1M6 5h1M9 5h1M4 6h1M8 6h1M4 7h1M8 7h1M1 8h2M5 8h1M7 8h1M10 8h2M0 9h1M6 9h1M12 9h1M1 10h2M10 10h2M3 11h7" />
<path stroke="#eb2c2c" d="M5 2h3M4 3h2M7 3h2M4 4h1M8 4h1M4 5h2M7 5h2M5 6h3M5 7h3M6 8h1" />
<path stroke="#5ae64e" d="M3 8h2M8 8h2M1 9h5M7 9h5M3 10h7" />
</svg>