<svg xmlns="http://www.w3.org/2000/svg" viewBox="0 -0.5 16 16" shape-rendering="crispEdges">
<metadata>Made with Pixels to Svg https://codepen.io/shshaw/pen/XbxvNj</metadata>
<path stroke="#000000" d="M2 2h12M1 3h1M14 3h1M0 4h1M2 4h1M13 4h1M15 4h1M0 5h1M3 5h1M12 5h1M15 5h1M0 6h1M4 6h1M11 6h1M15 6h1M0 7h1M5 7h1M10 7h1M15 7h1M0 8h1M4 8h1M6 8h4M11 8h1M15 8h1M0 9h1M3 9h1M12 9h1M15 9h1M0 10h1M2 10h1M13 10h1M15 10h1M1 11h1M14 11h1M2 12h12" />
<path stroke="#d6d6d6" d="M1 4h1M14 4h1M2 5h1M13 5h1M12 6h1M11 7h1" />
</svg>