<svg width="512" height="512" viewBox="0 0 512 512" fill="none" xmlns="http://www.w3.org/2000/svg">
<rect width="512" height="512" fill="#F9E8B5"/>
<mask id="path-1-inside-1_1_2" fill="white">
<path fill-rule="evenodd" clip-rule="evenodd" d="M437.999 256C438 255.833 438 255.667 438 255.5C438 154.708 356.292 73 255.5 73C154.708 73 73 154.708 73 255.5C73 255.667 73.0002 255.833 73.0007 256H437.999Z"/>
</mask>
<path fill-rule="evenodd" clip-rule="evenodd" d="M437.999 256C438 255.833 438 255.667 438 255.5C438 154.708 356.292 73 255.5 73C154.708 73 73 154.708 73 255.5C73 255.667 73.0002 255.833 73.0007 256H437.999Z" fill="#E8A3AA"/>
<path d="M437.999 256V261H442.986L442.999 256.014L437.999 256ZM73.0007 256L68.0007 256.013L68.0141 261H73.0007V256ZM433 255.5C433 255.662 433 255.825 432.999 255.986L442.999 256.014C443 255.842 443 255.671 443 255.5H433ZM255.5 78C353.531 78 433 157.469 433 255.5H443C443 151.947 359.053 68 255.5 68V78ZM78 255.5C78 157.469 157.469 78 255.5 78V68C151.947 68 68 151.947 68 255.5H78ZM78.0007 255.987C78.0002 255.824 78 255.662 78 255.5H68C68 255.671 68.0002 255.842 68.0007 256.013L78.0007 255.987ZM73.0007 261H437.999V251H73.0007V261Z" fill="black" mask="url(#path-1-inside-1_1_2)"/>
<mask id="path-3-inside-2_1_2" fill="white">
<path fill-rule="evenodd" clip-rule="evenodd" d="M73.0007 261C73.0002 261.167 73 261.333 73 261.5C73 362.292 154.708 444 255.5 444C356.292 444 438 362.292 438 261.5C438 261.333 438 261.167 437.999 261L73.0007 261Z"/>
</mask>
<path fill-rule="evenodd" clip-rule="evenodd" d="M73.0007 261C73.0002 261.167 73 261.333 73 261.5C73 362.292 154.708 444 255.5 444C356.292 444 438 362.292 438 261.5C438 261.333 438 261.167 437.999 261L73.0007 261Z" fill="white"/>
<path d="M73.0007 261V256H68.0144L68.0007 260.986L73.0007 261ZM437.999 261L442.999 260.987L442.986 256H437.999V261ZM78 261.5C78 261.338 78.0002 261.175 78.0006 261.014L68.0007 260.986C68.0002 261.158 68 261.329 68 261.5H78ZM255.5 439C157.469 439 78 359.531 78 261.5H68C68 365.053 151.947 449 255.5 449V439ZM433 261.5C433 359.531 353.531 439 255.5 439V449C359.053 449 443 365.053 443 261.5H433ZM432.999 261.013C433 261.176 433 261.338 433 261.5H443C443 261.329 443 261.158 442.999 260.987L432.999 261.013ZM437.999 256L73.0007 256V266L437.999 266V256Z" fill="black" mask="url(#path-3-inside-2_1_2)"/>
<rect x="73" y="256" width="365" height="5" fill="black"/>
<circle cx="256" cy="261" r="37.5" fill="white" stroke="black" stroke-width="5"/>
</svg>
