<svg width="512" height="512" viewBox="0 0 512 512" fill="none" xmlns="http://www.w3.org/2000/svg">
<g clip-path="url(#clip0_142_16)">
<rect width="512" height="512" fill="white"/>
<g filter="url(#filter0_d_142_16)">
<rect width="512" height="512" fill="#FDF9D9"/>
</g>
<path d="M130.67 291.04L105.245 273.715C101.975 271.465 99.1851 268.945 96.8751 266.155C94.5651 263.365 92.8101 260.215 91.6101 256.705C90.4101 253.165 89.8101 249.22 89.8101 244.87C89.8101 240.04 90.5901 235.6 92.1501 231.55C93.7101 227.5 95.9001 224.005 98.7201 221.065C101.57 218.095 104.93 215.8 108.8 214.18C112.67 212.56 116.915 211.75 121.535 211.75C126.155 211.75 130.4 212.56 134.27 214.18C138.14 215.77 141.5 218.035 144.35 220.975C147.2 223.915 149.405 227.395 150.965 231.415C152.525 235.435 153.305 239.86 153.305 244.69C153.305 249.46 152.495 253.93 150.875 258.1C149.255 262.24 146.96 265.84 143.99 268.9C141.02 271.93 137.495 274.195 133.415 275.695C129.365 277.165 124.91 277.63 120.05 277.09L120.095 276.505L140.345 287.62C143.195 289.18 145.685 290.41 147.815 291.31C149.975 292.21 151.895 292.84 153.575 293.2C155.255 293.59 156.815 293.77 158.255 293.74C159.695 293.74 161.135 293.605 162.575 293.335V295.09C160.295 295.78 158.27 296.335 156.5 296.755C154.76 297.175 153.17 297.475 151.73 297.655C150.32 297.835 148.94 297.925 147.59 297.925C145.7 297.925 144.02 297.745 142.55 297.385C141.11 297.055 139.76 296.575 138.5 295.945C137.24 295.345 135.98 294.625 134.72 293.785C133.46 292.945 132.11 292.03 130.67 291.04ZM121.94 275.74C126.47 275.74 130.355 274.54 133.595 272.14C136.865 269.74 139.385 266.335 141.155 261.925C142.925 257.485 143.81 252.265 143.81 246.265C143.81 239.395 142.835 233.56 140.885 228.76C138.965 223.93 136.295 220.24 132.875 217.69C129.485 215.14 125.585 213.865 121.175 213.865C116.645 213.865 112.745 215.065 109.475 217.465C106.205 219.865 103.685 223.285 101.915 227.725C100.145 232.135 99.2601 237.355 99.2601 243.385C99.2601 250.225 100.22 256.06 102.14 260.89C104.09 265.72 106.76 269.41 110.15 271.96C113.57 274.48 117.5 275.74 121.94 275.74ZM184.59 242.44C189.15 242.44 192.72 241.255 195.3 238.885C197.91 236.485 199.215 232.975 199.215 228.355C199.215 225.595 198.645 223.225 197.505 221.245C196.365 219.235 194.505 217.69 191.925 216.61C189.345 215.53 185.895 214.99 181.575 214.99H169.695V212.65H184.68C190.68 212.65 195.42 213.325 198.9 214.675C202.41 216.025 204.915 217.87 206.415 220.21C207.915 222.55 208.665 225.235 208.665 228.265C208.665 230.905 207.93 233.365 206.46 235.645C204.99 237.925 202.8 239.8 199.89 241.27C196.98 242.74 193.365 243.595 189.045 243.835V243.7C191.805 243.73 194.055 244.045 195.795 244.645C197.535 245.245 198.99 246.205 200.16 247.525C201.36 248.815 202.5 250.57 203.58 252.79L210.645 267.19C211.905 269.74 212.985 271.6 213.885 272.77C214.815 273.94 215.805 274.675 216.855 274.975C217.935 275.275 219.315 275.425 220.995 275.425V277C217.875 277.24 215.28 277.345 213.21 277.315C211.17 277.285 209.475 277.015 208.125 276.505C206.775 275.995 205.62 275.17 204.66 274.03C203.7 272.89 202.74 271.36 201.78 269.44L193.77 253.06C192.69 250.81 191.715 249.1 190.845 247.93C189.975 246.73 189.075 245.905 188.145 245.455C187.215 245.005 186.075 244.78 184.725 244.78H169.695V242.44H184.59ZM176.805 212.65V273.805L184.86 275.695V277H159.48V275.695L167.535 273.805V215.8L159.48 213.955V212.65H176.805ZM241.731 230.02C244.881 230.02 247.626 230.68 249.966 232C252.306 233.29 254.166 235.21 255.546 237.76C256.926 240.28 257.751 243.4 258.021 247.12H228.231V244.51H253.071L249.561 246.31C249.261 243.07 248.721 240.415 247.941 238.345C247.191 236.275 246.186 234.745 244.926 233.755C243.696 232.735 242.181 232.225 240.381 232.225C237.951 232.225 235.866 232.93 234.126 234.34C232.386 235.75 231.051 237.805 230.121 240.505C229.191 243.175 228.726 246.415 228.726 250.225C228.726 255.235 229.371 259.315 230.661 262.465C231.981 265.585 233.886 267.865 236.376 269.305C238.866 270.745 241.896 271.465 245.466 271.465C247.116 271.465 248.736 271.24 250.326 270.79C251.916 270.34 253.401 269.665 254.781 268.765C256.191 267.865 257.391 266.74 258.381 265.39L259.101 265.885C257.241 268.855 255.366 271.225 253.476 272.995C251.616 274.735 249.651 275.995 247.581 276.775C245.541 277.525 243.306 277.9 240.876 277.9C236.976 277.9 233.451 277.03 230.301 275.29C227.181 273.52 224.706 270.925 222.876 267.505C221.076 264.055 220.176 259.81 220.176 254.77C220.176 250.3 221.016 246.19 222.696 242.44C224.406 238.69 226.866 235.69 230.076 233.44C233.316 231.16 237.201 230.02 241.731 230.02ZM288.141 230.02C291.021 230.02 293.376 230.32 295.206 230.92C297.066 231.52 298.431 232.315 299.301 233.305C300.171 234.295 300.606 235.375 300.606 236.545C300.606 237.475 300.411 238.285 300.021 238.975C299.661 239.665 299.136 240.19 298.446 240.55C297.786 240.91 296.976 241.09 296.016 241.09C295.776 241.09 295.401 240.805 294.891 240.235C294.381 239.635 293.751 238.915 293.001 238.075C292.281 237.205 291.456 236.335 290.526 235.465C289.596 234.595 288.606 233.875 287.556 233.305C286.506 232.705 285.411 232.405 284.271 232.405C282.081 232.405 280.146 233.035 278.466 234.295C276.786 235.555 275.466 237.505 274.506 240.145C273.576 242.755 273.111 246.115 273.111 250.225C273.111 255.235 273.711 259.315 274.911 262.465C276.111 265.585 277.881 267.865 280.221 269.305C282.561 270.745 285.456 271.465 288.906 271.465C291.306 271.465 293.616 270.97 295.836 269.98C298.056 268.96 299.901 267.43 301.371 265.39L302.046 265.885C300.276 268.855 298.476 271.225 296.646 272.995C294.846 274.735 292.956 275.995 290.976 276.775C288.996 277.525 286.836 277.9 284.496 277.9C280.746 277.9 277.356 277.03 274.326 275.29C271.326 273.52 268.941 270.925 267.171 267.505C265.431 264.055 264.561 259.81 264.561 254.77C264.561 251.17 265.146 247.87 266.316 244.87C267.486 241.84 269.136 239.215 271.266 236.995C273.396 234.775 275.886 233.065 278.736 231.865C281.616 230.635 284.751 230.02 288.141 230.02ZM315.697 222.91C313.807 222.91 312.307 222.265 311.197 220.975C310.117 219.685 309.577 218.245 309.577 216.655C309.577 215.065 310.117 213.7 311.197 212.56C312.307 211.39 313.807 210.805 315.697 210.805C317.587 210.805 319.042 211.39 320.062 212.56C321.112 213.7 321.637 215.065 321.637 216.655C321.637 218.245 321.112 219.685 320.062 220.975C319.042 222.265 317.587 222.91 315.697 222.91ZM320.557 229.525V238.3V274.435L326.992 275.785V277H305.842V275.785L312.277 274.435V238.48C311.947 238.27 311.452 237.955 310.792 237.535C310.132 237.115 309.367 236.635 308.497 236.095C307.657 235.555 306.772 235 305.842 234.43V233.62L320.377 229.525H320.557ZM369.82 255.31C369.82 248.86 368.635 244.06 366.265 240.91C363.895 237.76 360.34 236.185 355.6 236.185C353.92 236.185 352.315 236.38 350.785 236.77C349.255 237.13 347.785 237.73 346.375 238.57C344.965 239.41 343.585 240.55 342.235 241.99L341.56 241.09C343.54 238.96 345.37 237.19 347.05 235.78C348.76 234.34 350.35 233.2 351.82 232.36C353.29 231.52 354.685 230.92 356.005 230.56C357.325 230.2 358.6 230.02 359.83 230.02C363.76 230.02 367.12 230.935 369.91 232.765C372.73 234.565 374.89 237.085 376.39 240.325C377.89 243.565 378.64 247.36 378.64 251.71C378.64 257.2 377.59 261.91 375.49 265.84C373.42 269.74 370.54 272.725 366.85 274.795C363.16 276.865 358.9 277.9 354.07 277.9C352.33 277.9 350.545 277.765 348.715 277.495C346.915 277.255 345.16 276.865 343.45 276.325C341.74 275.785 340.15 275.095 338.68 274.255H344.71V294.46L352.045 295.81V297.025H329.995V295.81L336.43 294.46V238.48C336.04 238.24 335.56 237.94 334.99 237.58C334.42 237.22 333.715 236.785 332.875 236.275C332.065 235.735 331.105 235.12 329.995 234.43V233.62L344.53 229.525H344.71V236.86V265.615C344.71 267.565 345.205 269.305 346.195 270.835C347.185 272.365 348.535 273.565 350.245 274.435C351.955 275.305 353.86 275.74 355.96 275.74C358.9 275.74 361.405 274.96 363.475 273.4C365.545 271.81 367.12 269.5 368.2 266.47C369.28 263.41 369.82 259.69 369.82 255.31ZM406.965 230.02C410.115 230.02 412.86 230.68 415.2 232C417.54 233.29 419.4 235.21 420.78 237.76C422.16 240.28 422.985 243.4 423.255 247.12H393.465V244.51H418.305L414.795 246.31C414.495 243.07 413.955 240.415 413.175 238.345C412.425 236.275 411.42 234.745 410.16 233.755C408.93 232.735 407.415 232.225 405.615 232.225C403.185 232.225 401.1 232.93 399.36 234.34C397.62 235.75 396.285 237.805 395.355 240.505C394.425 243.175 393.96 246.415 393.96 250.225C393.96 255.235 394.605 259.315 395.895 262.465C397.215 265.585 399.12 267.865 401.61 269.305C404.1 270.745 407.13 271.465 410.7 271.465C412.35 271.465 413.97 271.24 415.56 270.79C417.15 270.34 418.635 269.665 420.015 268.765C421.425 267.865 422.625 266.74 423.615 265.39L424.335 265.885C422.475 268.855 420.6 271.225 418.71 272.995C416.85 274.735 414.885 275.995 412.815 276.775C410.775 277.525 408.54 277.9 406.11 277.9C402.21 277.9 398.685 277.03 395.535 275.29C392.415 273.52 389.94 270.925 388.11 267.505C386.31 264.055 385.41 259.81 385.41 254.77C385.41 250.3 386.25 246.19 387.93 242.44C389.64 238.69 392.1 235.69 395.31 233.44C398.55 231.16 402.435 230.02 406.965 230.02Z" fill="black"/>
</g>
<defs>
<filter id="filter0_d_142_16" x="-4" y="0" width="520" height="520" filterUnits="userSpaceOnUse" color-interpolation-filters="sRGB">
<feFlood flood-opacity="0" result="BackgroundImageFix"/>
<feColorMatrix in="SourceAlpha" type="matrix" values="0 0 0 0 0 0 0 0 0 0 0 0 0 0 0 0 0 0 127 0" result="hardAlpha"/>
<feOffset dy="4"/>
<feGaussianBlur stdDeviation="2"/>
<feComposite in2="hardAlpha" operator="out"/>
<feColorMatrix type="matrix" values="0 0 0 0 0 0 0 0 0 0 0 0 0 0 0 0 0 0 0.25 0"/>
<feBlend mode="normal" in2="BackgroundImageFix" result="effect1_dropShadow_142_16"/>
<feBlend mode="normal" in="SourceGraphic" in2="effect1_dropShadow_142_16" result="shape"/>
</filter>
<clipPath id="clip0_142_16">
<rect width="512" height="512" fill="white"/>
</clipPath>
</defs>
</svg>
