<svg width="512" height="512" viewBox="0 0 512 512" fill="none" xmlns="http://www.w3.org/2000/svg">
<g clip-path="url(#clip0_16_2)">
<rect width="512" height="512" fill="white"/>
<rect x="-190" y="276" width="426" height="426" fill="#F4E8B6"/>
<rect x="276" y="276" width="426" height="426" fill="#B29E80"/>
<rect x="276" y="-190" width="426" height="426" fill="#F5CCAB"/>
<rect x="-190" y="-190" width="426" height="426" fill="#B28D79"/>
<circle cx="256" cy="256" r="142" fill="white"/>
<path d="M227.796 256.035L241.769 242.062L331.945 332.237L329.336 343.602L317.972 346.211L227.796 256.035Z" fill="black"/>
<path d="M174.894 212.291C149.419 175.424 165.253 165.653 165.253 165.653L241.716 242.115L217.456 266.375C217.456 266.375 200.369 249.158 174.894 212.291Z" fill="black"/>
<path d="M266.221 233.943L280.195 247.917L183.973 344.138L172.316 341.822L170 330.164L266.221 233.943Z" fill="black"/>
<path d="M257.73 198.428L315.277 255.975L291.433 259.677L254.028 222.271L257.73 198.428Z" fill="black"/>
<path d="M301.023 241.994L333.52 209.497L343.756 213.235L347.493 223.471L314.997 255.967L301.023 241.994Z" fill="black"/>
<path d="M257.435 198.491L273.683 182.243L289.932 165.995L300.168 169.732L303.905 179.969L287.657 196.217L271.409 212.465L257.435 198.491Z" fill="black"/>
<path d="M279.535 220.587L331.233 168.888L343.39 170.705L345.207 182.862L293.508 234.56L279.535 220.587Z" fill="black"/>
</g>
<defs>
<clipPath id="clip0_16_2">
<rect width="512" height="512" fill="white"/>
</clipPath>
</defs>
</svg>
